v 0.0 0.30901699437495 -0.5 
v 0.30901699437495 0.5 0.0 
v -0.30901699437495 0.5 0.0 
v 0.0 0.30901699437495 0.5 
v 0.0 -0.30901699437495 0.5 
v -0.5 0.0 0.30901699437495 
v 0.5 0.0 0.30901699437495 
v 0.0 -0.30901699437495 -0.5 
v 0.5 0.0 -0.30901699437495 
v -0.5 0.0 -0.30901699437495 
v 0.30901699437495 -0.5 0.0 
v -0.30901699437495 -0.5 0.0 
v -0.3090169943749491 0.8090169943749477 -0.49999999999999856 
v 0.0 1.0 0.0 
v 0.3090169943749491 0.8090169943749477 -0.49999999999999856 
v 0.3090169943749491 0.8090169943749477 0.49999999999999856 
v -0.3090169943749491 0.8090169943749477 0.49999999999999856 
v -0.49999999999999856 0.3090169943749491 0.8090169943749477 
v -0.49999999999999856 -0.3090169943749491 0.8090169943749477 
v 0.0 0.0 1.0 
v 0.49999999999999856 -0.3090169943749491 0.8090169943749477 
v 0.49999999999999856 0.3090169943749491 0.8090169943749477 
v 0.49999999999999856 0.3090169943749491 -0.8090169943749477 
v 0.49999999999999856 -0.3090169943749491 -0.8090169943749477 
v 0.0 0.0 -1.0 
v -0.49999999999999856 -0.3090169943749491 -0.8090169943749477 
v -0.49999999999999856 0.3090169943749491 -0.8090169943749477 
v -0.3090169943749491 -0.8090169943749477 0.49999999999999856 
v 0.0 -1.0 0.0 
v 0.3090169943749491 -0.8090169943749477 0.49999999999999856 
v 0.3090169943749491 -0.8090169943749477 -0.49999999999999856 
v -0.3090169943749491 -0.8090169943749477 -0.49999999999999856 
v -0.8090169943749477 0.49999999999999856 -0.3090169943749491 
v -1.0 0.0 0.0 
v -0.8090169943749477 0.49999999999999856 0.3090169943749491 
v -0.8090169943749477 -0.49999999999999856 0.3090169943749491 
v -0.8090169943749477 -0.49999999999999856 -0.3090169943749491 
v 0.8090169943749477 0.49999999999999856 0.3090169943749491 
v 1.0 0.0 0.0 
v 0.8090169943749477 0.49999999999999856 -0.3090169943749491 
v 0.8090169943749477 -0.49999999999999856 -0.3090169943749491 
v 0.8090169943749477 -0.49999999999999856 0.3090169943749491 
v -0.2017741061675998 0.7300255741640036 -0.652954723657608 
v 0.0 0.8506508083520407 -0.5257311121191324 
v 0.2017741061675998 0.7300255741640036 -0.652954723657608 
v -0.20177410616760047 0.9794320854864138 0.0 
v -0.16245984811645403 0.9510565162951536 -0.262865556059566 
v -0.4035482123352001 0.8547288298252076 -0.3264773618288035 
v 0.4035482123352001 0.8547288298252076 -0.3264773618288035 
v 0.16245984811645403 0.9510565162951536 -0.262865556059566 
v 0.20177410616760047 0.9794320854864138 0.0 
v 0.2017741061675998 0.7300255741640036 0.652954723657608 
v 0.0 0.8506508083520407 0.5257311121191324 
v -0.2017741061675998 0.7300255741640036 0.652954723657608 
v 0.16245984811645403 0.9510565162951536 0.262865556059566 
v 0.4035482123352001 0.8547288298252076 0.3264773618288035 
v -0.4035482123352001 0.8547288298252076 0.3264773618288035 
v -0.16245984811645403 0.9510565162951536 0.262865556059566 
v -0.3264773618288035 0.4035482123352001 0.8547288298252076 
v -0.262865556059566 0.16245984811645403 0.9510565162951536 
v 0.0 0.20177410616760047 0.9794320854864138 
v -0.652954723657608 -0.2017741061675998 0.7300255741640036 
v -0.5257311121191324 0.0 0.8506508083520407 
v -0.652954723657608 0.2017741061675998 0.7300255741640036 
v 0.0 -0.20177410616760047 0.9794320854864138 
v -0.262865556059566 -0.16245984811645403 0.9510565162951536 
v -0.3264773618288035 -0.4035482123352001 0.8547288298252076 
v 0.262865556059566 0.16245984811645403 0.9510565162951536 
v 0.3264773618288035 0.4035482123352001 0.8547288298252076 
v 0.3264773618288035 -0.4035482123352001 0.8547288298252076 
v 0.262865556059566 -0.16245984811645403 0.9510565162951536 
v 0.652954723657608 0.2017741061675998 0.7300255741640036 
v 0.5257311121191324 0.0 0.8506508083520407 
v 0.652954723657608 -0.2017741061675998 0.7300255741640036 
v 0.3264773618288035 0.4035482123352001 -0.8547288298252076 
v 0.262865556059566 0.16245984811645403 -0.9510565162951536 
v 0.0 0.20177410616760047 -0.9794320854864138 
v 0.652954723657608 -0.2017741061675998 -0.7300255741640036 
v 0.5257311121191324 0.0 -0.8506508083520407 
v 0.652954723657608 0.2017741061675998 -0.7300255741640036 
v 0.0 -0.20177410616760047 -0.9794320854864138 
v 0.262865556059566 -0.16245984811645403 -0.9510565162951536 
v 0.3264773618288035 -0.4035482123352001 -0.8547288298252076 
v -0.262865556059566 0.16245984811645403 -0.9510565162951536 
v -0.3264773618288035 0.4035482123352001 -0.8547288298252076 
v -0.3264773618288035 -0.4035482123352001 -0.8547288298252076 
v -0.262865556059566 -0.16245984811645403 -0.9510565162951536 
v -0.652954723657608 0.2017741061675998 -0.7300255741640036 
v -0.5257311121191324 0.0 -0.8506508083520407 
v -0.652954723657608 -0.2017741061675998 -0.7300255741640036 
v -0.2017741061675998 -0.7300255741640036 0.652954723657608 
v 0.0 -0.8506508083520407 0.5257311121191324 
v 0.2017741061675998 -0.7300255741640036 0.652954723657608 
v -0.20177410616760047 -0.9794320854864138 0.0 
v -0.16245984811645403 -0.9510565162951536 0.262865556059566 
v -0.4035482123352001 -0.8547288298252076 0.3264773618288035 
v 0.4035482123352001 -0.8547288298252076 0.3264773618288035 
v 0.16245984811645403 -0.9510565162951536 0.262865556059566 
v 0.20177410616760047 -0.9794320854864138 0.0 
v 0.2017741061675998 -0.7300255741640036 -0.652954723657608 
v 0.0 -0.8506508083520407 -0.5257311121191324 
v -0.2017741061675998 -0.7300255741640036 -0.652954723657608 
v 0.16245984811645403 -0.9510565162951536 -0.262865556059566 
v 0.4035482123352001 -0.8547288298252076 -0.3264773618288035 
v -0.4035482123352001 -0.8547288298252076 -0.3264773618288035 
v -0.16245984811645403 -0.9510565162951536 -0.262865556059566 
v -0.7300255741640036 0.652954723657608 -0.2017741061675998 
v -0.8506508083520407 0.5257311121191324 0.0 
v -0.7300255741640036 0.652954723657608 0.2017741061675998 
v -0.9794320854864138 0.0 -0.20177410616760047 
v -0.9510565162951536 0.262865556059566 -0.16245984811645403 
v -0.8547288298252076 0.3264773618288035 -0.4035482123352001 
v -0.8547288298252076 0.3264773618288035 0.4035482123352001 
v -0.9510565162951536 0.262865556059566 0.16245984811645403 
v -0.9794320854864138 0.0 0.20177410616760047 
v -0.7300255741640036 -0.652954723657608 0.2017741061675998 
v -0.8506508083520407 -0.5257311121191324 0.0 
v -0.7300255741640036 -0.652954723657608 -0.2017741061675998 
v -0.9510565162951536 -0.262865556059566 0.16245984811645403 
v -0.8547288298252076 -0.3264773618288035 0.4035482123352001 
v -0.8547288298252076 -0.3264773618288035 -0.4035482123352001 
v -0.9510565162951536 -0.262865556059566 -0.16245984811645403 
v 0.7300255741640036 0.652954723657608 0.2017741061675998 
v 0.8506508083520407 0.5257311121191324 0.0 
v 0.7300255741640036 0.652954723657608 -0.2017741061675998 
v 0.9794320854864138 0.0 0.20177410616760047 
v 0.9510565162951536 0.262865556059566 0.16245984811645403 
v 0.8547288298252076 0.3264773618288035 0.4035482123352001 
v 0.8547288298252076 0.3264773618288035 -0.4035482123352001 
v 0.9510565162951536 0.262865556059566 -0.16245984811645403 
v 0.9794320854864138 0.0 -0.20177410616760047 
v 0.7300255741640036 -0.652954723657608 -0.2017741061675998 
v 0.8506508083520407 -0.5257311121191324 0.0 
v 0.7300255741640036 -0.652954723657608 0.2017741061675998 
v 0.9510565162951536 -0.262865556059566 -0.16245984811645403 
v 0.8547288298252076 -0.3264773618288035 -0.4035482123352001 
v 0.8547288298252076 -0.3264773618288035 0.4035482123352001 
v 0.9510565162951536 -0.262865556059566 0.16245984811645403 
v -0.42532540417602005 0.587785252292474 0.688190960235586 
v -0.587785252292474 0.688190960235586 0.42532540417602005 
v -0.688190960235586 0.42532540417602005 0.587785252292474 
v 0.42532540417602005 0.587785252292474 0.688190960235586 
v 0.688190960235586 0.42532540417602005 0.587785252292474 
v 0.587785252292474 0.688190960235586 0.42532540417602005 
v -0.42532540417602005 0.587785252292474 -0.688190960235586 
v -0.688190960235586 0.42532540417602005 -0.587785252292474 
v -0.587785252292474 0.688190960235586 -0.42532540417602005 
v 0.42532540417602005 0.587785252292474 -0.688190960235586 
v 0.587785252292474 0.688190960235586 -0.42532540417602005 
v 0.688190960235586 0.42532540417602005 -0.587785252292474 
v -0.42532540417602005 -0.587785252292474 -0.688190960235586 
v -0.587785252292474 -0.688190960235586 -0.42532540417602005 
v -0.688190960235586 -0.42532540417602005 -0.587785252292474 
v 0.42532540417602005 -0.587785252292474 -0.688190960235586 
v 0.688190960235586 -0.42532540417602005 -0.587785252292474 
v 0.587785252292474 -0.688190960235586 -0.42532540417602005 
v -0.42532540417602005 -0.587785252292474 0.688190960235586 
v -0.688190960235586 -0.42532540417602005 0.587785252292474 
v -0.587785252292474 -0.688190960235586 0.42532540417602005 
v 0.42532540417602005 -0.587785252292474 0.688190960235586 
v 0.587785252292474 -0.688190960235586 0.42532540417602005 
v 0.688190960235586 -0.42532540417602005 0.587785252292474 
v -0.1289185659305001 0.6638705055916375 -0.7366518547889 
v 0.0 0.7453559924999312 -0.6666666666666653 
v 0.1289185659305001 0.6638705055916375 -0.7366518547889 
v -0.15643446504023178 0.8401778853271396 -0.5192584897281821 
v -0.10180034247349025 0.7974928009158486 -0.5946779992228356 
v -0.25671900529199776 0.7735089293405747 -0.5794646568620773 
v 0.25671900529199776 0.7735089293405747 -0.5794646568620773 
v 0.10180034247349025 0.7974928009158486 -0.5946779992228356 
v 0.15643446504023178 0.8401778853271396 -0.5192584897281821 
v -0.32635731820469616 0.9452464762453435 0.0 
v -0.3090169943749495 0.936338998124982 -0.16666666666666605 
v -0.4552758841351961 0.8655704207194003 -0.20859462145644161 
v -0.08224246527936274 0.9876883405951378 -0.13307110414059092 
v -0.18376560794074961 0.9739822643015137 -0.13262258542293207 
v -0.10140984792806404 0.9948447329825931 0.0 
v -0.3581288532200617 0.836183662154075 -0.4153800761205131 
v -0.2855659504142398 0.9110661925865174 -0.29733899961141746 
v -0.23867693031959444 0.891006524188368 -0.38618738558759086 
v 0.4552758841351961 0.8655704207194003 -0.20859462145644161 
v 0.3090169943749495 0.936338998124982 -0.16666666666666605 
v 0.32635731820469616 0.9452464762453435 0.0 
v 0.23867693031959444 0.891006524188368 -0.38618738558759086 
v 0.2855659504142398 0.9110661925865174 -0.29733899961141746 
v 0.3581288532200617 0.836183662154075 -0.4153800761205131 
v 0.10140984792806404 0.9948447329825931 0.0 
v 0.18376560794074961 0.9739822643015137 -0.13262258542293207 
v 0.08224246527936274 0.9876883405951378 -0.13307110414059092 
v -0.08232358003196061 0.9129824929322995 -0.3996070517018501 
v 0.0 0.9638612634676228 -0.26640470113456666 
v 0.08232358003196061 0.9129824929322995 -0.3996070517018501 
v 0.1289185659305001 0.6638705055916375 0.7366518547889 
v 0.0 0.7453559924999312 0.6666666666666653 
v -0.1289185659305001 0.6638705055916375 0.7366518547889 
v 0.15643446504023178 0.8401778853271396 0.5192584897281821 
v 0.10180034247349025 0.7974928009158486 0.5946779992228356 
v 0.25671900529199776 0.7735089293405747 0.5794646568620773 
v -0.25671900529199776 0.7735089293405747 0.5794646568620773 
v -0.10180034247349025 0.7974928009158486 0.5946779992228356 
v -0.15643446504023178 0.8401778853271396 0.5192584897281821 
v 0.3090169943749495 0.936338998124982 0.16666666666666605 
v 0.4552758841351961 0.8655704207194003 0.20859462145644161 
v 0.08224246527936274 0.9876883405951378 0.13307110414059092 
v 0.18376560794074961 0.9739822643015137 0.13262258542293207 
v 0.3581288532200617 0.836183662154075 0.4153800761205131 
v 0.2855659504142398 0.9110661925865174 0.29733899961141746 
v 0.23867693031959444 0.891006524188368 0.38618738558759086 
v -0.4552758841351961 0.8655704207194003 0.20859462145644161 
v -0.3090169943749495 0.936338998124982 0.16666666666666605 
v -0.23867693031959444 0.891006524188368 0.38618738558759086 
v -0.2855659504142398 0.9110661925865174 0.29733899961141746 
v -0.3581288532200617 0.836183662154075 0.4153800761205131 
v -0.18376560794074961 0.9739822643015137 0.13262258542293207 
v -0.08224246527936274 0.9876883405951378 0.13307110414059092 
v 0.08232358003196061 0.9129824929322995 0.3996070517018501 
v 0.0 0.9638612634676228 0.26640470113456666 
v -0.08232358003196061 0.9129824929322995 0.3996070517018501 
v -0.2085946214564416 0.45527588413519604 0.8655704207194 
v -0.16666666666666605 0.3090169943749495 0.936338998124982 
v 0.0 0.32635731820469616 0.9452464762453435 
v -0.38618738558759086 0.23867693031959444 0.891006524188368 
v -0.29733899961141746 0.2855659504142398 0.9110661925865174 
v -0.4153800761205131 0.3581288532200617 0.836183662154075 
v 0.0 0.10140984792806404 0.9948447329825931 
v -0.13262258542293207 0.18376560794074961 0.9739822643015138 
v -0.13307110414059092 0.08224246527936274 0.9876883405951378 
v -0.7366518547889 -0.1289185659305001 0.6638705055916375 
v -0.6666666666666653 0.0 0.7453559924999312 
v -0.7366518547889 0.1289185659305001 0.6638705055916375 
v -0.519258489728182 -0.15643446504023176 0.8401778853271394 
v -0.5946779992228356 -0.10180034247349024 0.7974928009158485 
v -0.5794646568620773 -0.25671900529199776 0.7735089293405747 
v -0.5794646568620773 0.25671900529199776 0.7735089293405747 
v -0.5946779992228356 0.10180034247349024 0.7974928009158485 
v -0.519258489728182 0.15643446504023176 0.8401778853271394 
v 0.0 -0.32635731820469616 0.9452464762453435 
v -0.16666666666666605 -0.3090169943749495 0.936338998124982 
v -0.2085946214564416 -0.45527588413519604 0.8655704207194 
v -0.13307110414059092 -0.08224246527936274 0.9876883405951378 
v -0.13262258542293207 -0.18376560794074961 0.9739822643015138 
v 0.0 -0.10140984792806404 0.9948447329825931 
v -0.4153800761205131 -0.3581288532200617 0.836183662154075 
v -0.29733899961141746 -0.2855659504142398 0.9110661925865174 
v -0.38618738558759086 -0.23867693031959444 0.891006524188368 
v -0.3996070517018501 0.08232358003196061 0.9129824929322995 
v -0.3996070517018501 -0.08232358003196061 0.9129824929322995 
v -0.26640470113456666 0.0 0.9638612634676228 
v 0.16666666666666605 0.3090169943749495 0.936338998124982 
v 0.2085946214564416 0.45527588413519604 0.8655704207194 
v 0.13307110414059092 0.08224246527936274 0.9876883405951378 
v 0.13262258542293207 0.18376560794074961 0.9739822643015138 
v 0.4153800761205131 0.3581288532200617 0.836183662154075 
v 0.29733899961141746 0.2855659504142398 0.9110661925865174 
v 0.38618738558759086 0.23867693031959444 0.891006524188368 
v 0.2085946214564416 -0.45527588413519604 0.8655704207194 
v 0.16666666666666605 -0.3090169943749495 0.936338998124982 
v 0.38618738558759086 -0.23867693031959444 0.891006524188368 
v 0.29733899961141746 -0.2855659504142398 0.9110661925865174 
v 0.4153800761205131 -0.3581288532200617 0.836183662154075 
v 0.13262258542293207 -0.18376560794074961 0.9739822643015138 
v 0.13307110414059092 -0.08224246527936274 0.9876883405951378 
v 0.7366518547889 0.1289185659305001 0.6638705055916375 
v 0.6666666666666653 0.0 0.7453559924999312 
v 0.7366518547889 -0.1289185659305001 0.6638705055916375 
v 0.519258489728182 0.15643446504023176 0.8401778853271394 
v 0.5946779992228356 0.10180034247349024 0.7974928009158485 
v 0.5794646568620773 0.25671900529199776 0.7735089293405747 
v 0.5794646568620773 -0.25671900529199776 0.7735089293405747 
v 0.5946779992228356 -0.10180034247349024 0.7974928009158485 
v 0.519258489728182 -0.15643446504023176 0.8401778853271394 
v 0.26640470113456666 0.0 0.9638612634676228 
v 0.3996070517018501 -0.08232358003196061 0.9129824929322995 
v 0.3996070517018501 0.08232358003196061 0.9129824929322995 
v 0.2085946214564416 0.45527588413519604 -0.8655704207194 
v 0.16666666666666605 0.3090169943749495 -0.936338998124982 
v 0.0 0.32635731820469616 -0.9452464762453435 
v 0.38618738558759086 0.23867693031959444 -0.891006524188368 
v 0.29733899961141746 0.2855659504142398 -0.9110661925865174 
v 0.4153800761205131 0.3581288532200617 -0.836183662154075 
v 0.0 0.10140984792806404 -0.9948447329825931 
v 0.13262258542293207 0.18376560794074961 -0.9739822643015138 
v 0.13307110414059092 0.08224246527936274 -0.9876883405951378 
v 0.7366518547889 -0.1289185659305001 -0.6638705055916375 
v 0.6666666666666653 0.0 -0.7453559924999312 
v 0.7366518547889 0.1289185659305001 -0.6638705055916375 
v 0.519258489728182 -0.15643446504023176 -0.8401778853271394 
v 0.5946779992228356 -0.10180034247349024 -0.7974928009158485 
v 0.5794646568620773 -0.25671900529199776 -0.7735089293405747 
v 0.5794646568620773 0.25671900529199776 -0.7735089293405747 
v 0.5946779992228356 0.10180034247349024 -0.7974928009158485 
v 0.519258489728182 0.15643446504023176 -0.8401778853271394 
v 0.0 -0.32635731820469616 -0.9452464762453435 
v 0.16666666666666605 -0.3090169943749495 -0.936338998124982 
v 0.2085946214564416 -0.45527588413519604 -0.8655704207194 
v 0.13307110414059092 -0.08224246527936274 -0.9876883405951378 
v 0.13262258542293207 -0.18376560794074961 -0.9739822643015138 
v 0.0 -0.10140984792806404 -0.9948447329825931 
v 0.4153800761205131 -0.3581288532200617 -0.836183662154075 
v 0.29733899961141746 -0.2855659504142398 -0.9110661925865174 
v 0.38618738558759086 -0.23867693031959444 -0.891006524188368 
v 0.3996070517018501 0.08232358003196061 -0.9129824929322995 
v 0.3996070517018501 -0.08232358003196061 -0.9129824929322995 
v 0.26640470113456666 0.0 -0.9638612634676228 
v -0.16666666666666605 0.3090169943749495 -0.936338998124982 
v -0.2085946214564416 0.45527588413519604 -0.8655704207194 
v -0.13307110414059092 0.08224246527936274 -0.9876883405951378 
v -0.13262258542293207 0.18376560794074961 -0.9739822643015138 
v -0.4153800761205131 0.3581288532200617 -0.836183662154075 
v -0.29733899961141746 0.2855659504142398 -0.9110661925865174 
v -0.38618738558759086 0.23867693031959444 -0.891006524188368 
v -0.2085946214564416 -0.45527588413519604 -0.8655704207194 
v -0.16666666666666605 -0.3090169943749495 -0.936338998124982 
v -0.38618738558759086 -0.23867693031959444 -0.891006524188368 
v -0.29733899961141746 -0.2855659504142398 -0.9110661925865174 
v -0.4153800761205131 -0.3581288532200617 -0.836183662154075 
v -0.13262258542293207 -0.18376560794074961 -0.9739822643015138 
v -0.13307110414059092 -0.08224246527936274 -0.9876883405951378 
v -0.7366518547889 0.1289185659305001 -0.6638705055916375 
v -0.6666666666666653 0.0 -0.7453559924999312 
v -0.7366518547889 -0.1289185659305001 -0.6638705055916375 
v -0.519258489728182 0.15643446504023176 -0.8401778853271394 
v -0.5946779992228356 0.10180034247349024 -0.7974928009158485 
v -0.5794646568620773 0.25671900529199776 -0.7735089293405747 
v -0.5794646568620773 -0.25671900529199776 -0.7735089293405747 
v -0.5946779992228356 -0.10180034247349024 -0.7974928009158485 
v -0.519258489728182 -0.15643446504023176 -0.8401778853271394 
v -0.26640470113456666 0.0 -0.9638612634676228 
v -0.3996070517018501 -0.08232358003196061 -0.9129824929322995 
v -0.3996070517018501 0.08232358003196061 -0.9129824929322995 
v -0.1289185659305001 -0.6638705055916375 0.7366518547889 
v 0.0 -0.7453559924999312 0.6666666666666653 
v 0.1289185659305001 -0.6638705055916375 0.7366518547889 
v -0.15643446504023178 -0.8401778853271396 0.5192584897281821 
v -0.10180034247349025 -0.7974928009158486 0.5946779992228356 
v -0.25671900529199776 -0.7735089293405747 0.5794646568620773 
v 0.25671900529199776 -0.7735089293405747 0.5794646568620773 
v 0.10180034247349025 -0.7974928009158486 0.5946779992228356 
v 0.15643446504023178 -0.8401778853271396 0.5192584897281821 
v -0.32635731820469616 -0.9452464762453435 0.0 
v -0.3090169943749495 -0.936338998124982 0.16666666666666605 
v -0.4552758841351961 -0.8655704207194003 0.20859462145644161 
v -0.08224246527936274 -0.9876883405951378 0.13307110414059092 
v -0.18376560794074961 -0.9739822643015137 0.13262258542293207 
v -0.10140984792806404 -0.9948447329825931 0.0 
v -0.3581288532200617 -0.836183662154075 0.4153800761205131 
v -0.2855659504142398 -0.9110661925865174 0.29733899961141746 
v -0.23867693031959444 -0.891006524188368 0.38618738558759086 
v 0.4552758841351961 -0.8655704207194003 0.20859462145644161 
v 0.3090169943749495 -0.936338998124982 0.16666666666666605 
v 0.32635731820469616 -0.9452464762453435 0.0 
v 0.23867693031959444 -0.891006524188368 0.38618738558759086 
v 0.2855659504142398 -0.9110661925865174 0.29733899961141746 
v 0.3581288532200617 -0.836183662154075 0.4153800761205131 
v 0.10140984792806404 -0.9948447329825931 0.0 
v 0.18376560794074961 -0.9739822643015137 0.13262258542293207 
v 0.08224246527936274 -0.9876883405951378 0.13307110414059092 
v -0.08232358003196061 -0.9129824929322995 0.3996070517018501 
v 0.0 -0.9638612634676228 0.26640470113456666 
v 0.08232358003196061 -0.9129824929322995 0.3996070517018501 
v 0.1289185659305001 -0.6638705055916375 -0.7366518547889 
v 0.0 -0.7453559924999312 -0.6666666666666653 
v -0.1289185659305001 -0.6638705055916375 -0.7366518547889 
v 0.15643446504023178 -0.8401778853271396 -0.5192584897281821 
v 0.10180034247349025 -0.7974928009158486 -0.5946779992228356 
v 0.25671900529199776 -0.7735089293405747 -0.5794646568620773 
v -0.25671900529199776 -0.7735089293405747 -0.5794646568620773 
v -0.10180034247349025 -0.7974928009158486 -0.5946779992228356 
v -0.15643446504023178 -0.8401778853271396 -0.5192584897281821 
v 0.3090169943749495 -0.936338998124982 -0.16666666666666605 
v 0.4552758841351961 -0.8655704207194003 -0.20859462145644161 
v 0.08224246527936274 -0.9876883405951378 -0.13307110414059092 
v 0.18376560794074961 -0.9739822643015137 -0.13262258542293207 
v 0.3581288532200617 -0.836183662154075 -0.4153800761205131 
v 0.2855659504142398 -0.9110661925865174 -0.29733899961141746 
v 0.23867693031959444 -0.891006524188368 -0.38618738558759086 
v -0.4552758841351961 -0.8655704207194003 -0.20859462145644161 
v -0.3090169943749495 -0.936338998124982 -0.16666666666666605 
v -0.23867693031959444 -0.891006524188368 -0.38618738558759086 
v -0.2855659504142398 -0.9110661925865174 -0.29733899961141746 
v -0.3581288532200617 -0.836183662154075 -0.4153800761205131 
v -0.18376560794074961 -0.9739822643015137 -0.13262258542293207 
v -0.08224246527936274 -0.9876883405951378 -0.13307110414059092 
v 0.08232358003196061 -0.9129824929322995 -0.3996070517018501 
v 0.0 -0.9638612634676228 -0.26640470113456666 
v -0.08232358003196061 -0.9129824929322995 -0.3996070517018501 
v -0.6638705055916376 0.7366518547889002 -0.1289185659305001 
v -0.7453559924999312 0.6666666666666653 0.0 
v -0.6638705055916376 0.7366518547889002 0.1289185659305001 
v -0.8401778853271396 0.5192584897281821 -0.15643446504023178 
v -0.7974928009158486 0.5946779992228356 -0.10180034247349025 
v -0.7735089293405748 0.5794646568620774 -0.2567190052919978 
v -0.7735089293405748 0.5794646568620774 0.2567190052919978 
v -0.7974928009158486 0.5946779992228356 0.10180034247349025 
v -0.8401778853271396 0.5192584897281821 0.15643446504023178 
v -0.9452464762453435 0.0 -0.32635731820469616 
v -0.936338998124982 0.16666666666666605 -0.3090169943749495 
v -0.8655704207194003 0.20859462145644161 -0.4552758841351961 
v -0.9876883405951378 0.13307110414059092 -0.08224246527936274 
v -0.9739822643015137 0.13262258542293207 -0.18376560794074961 
v -0.9948447329825931 0.0 -0.10140984792806404 
v -0.836183662154075 0.4153800761205131 -0.3581288532200617 
v -0.9110661925865174 0.29733899961141746 -0.2855659504142398 
v -0.891006524188368 0.38618738558759086 -0.23867693031959444 
v -0.8655704207194003 0.20859462145644161 0.4552758841351961 
v -0.936338998124982 0.16666666666666605 0.3090169943749495 
v -0.9452464762453435 0.0 0.32635731820469616 
v -0.891006524188368 0.38618738558759086 0.23867693031959444 
v -0.9110661925865174 0.29733899961141746 0.2855659504142398 
v -0.836183662154075 0.4153800761205131 0.3581288532200617 
v -0.9948447329825931 0.0 0.10140984792806404 
v -0.9739822643015137 0.13262258542293207 0.18376560794074961 
v -0.9876883405951378 0.13307110414059092 0.08224246527936274 
v -0.9129824929322995 0.3996070517018501 -0.08232358003196061 
v -0.9638612634676228 0.26640470113456666 0.0 
v -0.9129824929322995 0.3996070517018501 0.08232358003196061 
v -0.6638705055916376 -0.7366518547889002 0.1289185659305001 
v -0.7453559924999312 -0.6666666666666653 0.0 
v -0.6638705055916376 -0.7366518547889002 -0.1289185659305001 
v -0.8401778853271396 -0.5192584897281821 0.15643446504023178 
v -0.7974928009158486 -0.5946779992228356 0.10180034247349025 
v -0.7735089293405748 -0.5794646568620774 0.2567190052919978 
v -0.7735089293405748 -0.5794646568620774 -0.2567190052919978 
v -0.7974928009158486 -0.5946779992228356 -0.10180034247349025 
v -0.8401778853271396 -0.5192584897281821 -0.15643446504023178 
v -0.936338998124982 -0.16666666666666605 0.3090169943749495 
v -0.8655704207194003 -0.20859462145644161 0.4552758841351961 
v -0.9876883405951378 -0.13307110414059092 0.08224246527936274 
v -0.9739822643015137 -0.13262258542293207 0.18376560794074961 
v -0.836183662154075 -0.4153800761205131 0.3581288532200617 
v -0.9110661925865174 -0.29733899961141746 0.2855659504142398 
v -0.891006524188368 -0.38618738558759086 0.23867693031959444 
v -0.8655704207194003 -0.20859462145644161 -0.4552758841351961 
v -0.936338998124982 -0.16666666666666605 -0.3090169943749495 
v -0.891006524188368 -0.38618738558759086 -0.23867693031959444 
v -0.9110661925865174 -0.29733899961141746 -0.2855659504142398 
v -0.836183662154075 -0.4153800761205131 -0.3581288532200617 
v -0.9739822643015137 -0.13262258542293207 -0.18376560794074961 
v -0.9876883405951378 -0.13307110414059092 -0.08224246527936274 
v -0.9129824929322995 -0.3996070517018501 0.08232358003196061 
v -0.9638612634676228 -0.26640470113456666 0.0 
v -0.9129824929322995 -0.3996070517018501 -0.08232358003196061 
v 0.6638705055916376 0.7366518547889002 0.1289185659305001 
v 0.7453559924999312 0.6666666666666653 0.0 
v 0.6638705055916376 0.7366518547889002 -0.1289185659305001 
v 0.8401778853271396 0.5192584897281821 0.15643446504023178 
v 0.7974928009158486 0.5946779992228356 0.10180034247349025 
v 0.7735089293405748 0.5794646568620774 0.2567190052919978 
v 0.7735089293405748 0.5794646568620774 -0.2567190052919978 
v 0.7974928009158486 0.5946779992228356 -0.10180034247349025 
v 0.8401778853271396 0.5192584897281821 -0.15643446504023178 
v 0.9452464762453435 0.0 0.32635731820469616 
v 0.936338998124982 0.16666666666666605 0.3090169943749495 
v 0.8655704207194003 0.20859462145644161 0.4552758841351961 
v 0.9876883405951378 0.13307110414059092 0.08224246527936274 
v 0.9739822643015137 0.13262258542293207 0.18376560794074961 
v 0.9948447329825931 0.0 0.10140984792806404 
v 0.836183662154075 0.4153800761205131 0.3581288532200617 
v 0.9110661925865174 0.29733899961141746 0.2855659504142398 
v 0.891006524188368 0.38618738558759086 0.23867693031959444 
v 0.8655704207194003 0.20859462145644161 -0.4552758841351961 
v 0.936338998124982 0.16666666666666605 -0.3090169943749495 
v 0.9452464762453435 0.0 -0.32635731820469616 
v 0.891006524188368 0.38618738558759086 -0.23867693031959444 
v 0.9110661925865174 0.29733899961141746 -0.2855659504142398 
v 0.836183662154075 0.4153800761205131 -0.3581288532200617 
v 0.9948447329825931 0.0 -0.10140984792806404 
v 0.9739822643015137 0.13262258542293207 -0.18376560794074961 
v 0.9876883405951378 0.13307110414059092 -0.08224246527936274 
v 0.9129824929322995 0.3996070517018501 0.08232358003196061 
v 0.9638612634676228 0.26640470113456666 0.0 
v 0.9129824929322995 0.3996070517018501 -0.08232358003196061 
v 0.6638705055916376 -0.7366518547889002 -0.1289185659305001 
v 0.7453559924999312 -0.6666666666666653 0.0 
v 0.6638705055916376 -0.7366518547889002 0.1289185659305001 
v 0.8401778853271396 -0.5192584897281821 -0.15643446504023178 
v 0.7974928009158486 -0.5946779992228356 -0.10180034247349025 
v 0.7735089293405748 -0.5794646568620774 -0.2567190052919978 
v 0.7735089293405748 -0.5794646568620774 0.2567190052919978 
v 0.7974928009158486 -0.5946779992228356 0.10180034247349025 
v 0.8401778853271396 -0.5192584897281821 0.15643446504023178 
v 0.936338998124982 -0.16666666666666605 -0.3090169943749495 
v 0.8655704207194003 -0.20859462145644161 -0.4552758841351961 
v 0.9876883405951378 -0.13307110414059092 -0.08224246527936274 
v 0.9739822643015137 -0.13262258542293207 -0.18376560794074961 
v 0.836183662154075 -0.4153800761205131 -0.3581288532200617 
v 0.9110661925865174 -0.29733899961141746 -0.2855659504142398 
v 0.891006524188368 -0.38618738558759086 -0.23867693031959444 
v 0.8655704207194003 -0.20859462145644161 0.4552758841351961 
v 0.936338998124982 -0.16666666666666605 0.3090169943749495 
v 0.891006524188368 -0.38618738558759086 0.23867693031959444 
v 0.9110661925865174 -0.29733899961141746 0.2855659504142398 
v 0.836183662154075 -0.4153800761205131 0.3581288532200617 
v 0.9739822643015137 -0.13262258542293207 0.18376560794074961 
v 0.9876883405951378 -0.13307110414059092 0.08224246527936274 
v 0.9129824929322995 -0.3996070517018501 -0.08232358003196061 
v 0.9638612634676228 -0.26640470113456666 0.0 
v 0.9129824929322995 -0.3996070517018501 0.08232358003196061 
v -0.26967233145831565 0.5786893258332649 0.7696723314583146 
v -0.3717480344601854 0.7071067811865481 0.6015009550075445 
v -0.31638819336368135 0.6648702154929161 0.6766432646900943 
v -0.37930426507867643 0.5001538013044309 0.7784436071635845 
v -0.46842985086695366 0.4539904997395481 0.7579354200477763 
v -0.5786893258332649 0.7696723314583146 0.26967233145831565 
v -0.7071067811865481 0.6015009550075445 0.3717480344601854 
v -0.6648702154929161 0.6766432646900943 0.31638819336368135 
v -0.5001538013044309 0.7784436071635845 0.37930426507867643 
v -0.4539904997395481 0.7579354200477763 0.46842985086695366 
v -0.7696723314583146 0.26967233145831565 0.5786893258332649 
v -0.6015009550075445 0.3717480344601854 0.7071067811865481 
v -0.6766432646900943 0.31638819336368135 0.6648702154929161 
v -0.7784436071635845 0.37930426507867643 0.5001538013044309 
v -0.7579354200477763 0.46842985086695366 0.4539904997395481 
v -0.5133754412304483 0.6465777917977317 0.5642542117657711 
v -0.6465777917977317 0.5642542117657711 0.5133754412304483 
v -0.5642542117657711 0.5133754412304483 0.6465777917977317 
v 0.26967233145831565 0.5786893258332649 0.7696723314583146 
v 0.46842985086695366 0.4539904997395481 0.7579354200477763 
v 0.37930426507867643 0.5001538013044309 0.7784436071635845 
v 0.31638819336368135 0.6648702154929161 0.6766432646900943 
v 0.3717480344601854 0.7071067811865481 0.6015009550075445 
v 0.7696723314583146 0.26967233145831565 0.5786893258332649 
v 0.7579354200477763 0.46842985086695366 0.4539904997395481 
v 0.7784436071635845 0.37930426507867643 0.5001538013044309 
v 0.6766432646900943 0.31638819336368135 0.6648702154929161 
v 0.6015009550075445 0.3717480344601854 0.7071067811865481 
v 0.5786893258332649 0.7696723314583146 0.26967233145831565 
v 0.4539904997395481 0.7579354200477763 0.46842985086695366 
v 0.5001538013044309 0.7784436071635845 0.37930426507867643 
v 0.6648702154929161 0.6766432646900943 0.31638819336368135 
v 0.7071067811865481 0.6015009550075445 0.3717480344601854 
v 0.5642542117657711 0.5133754412304483 0.6465777917977317 
v 0.6465777917977317 0.5642542117657711 0.5133754412304483 
v 0.5133754412304483 0.6465777917977317 0.5642542117657711 
v -0.26967233145831565 0.5786893258332649 -0.7696723314583146 
v -0.46842985086695366 0.4539904997395481 -0.7579354200477763 
v -0.37930426507867643 0.5001538013044309 -0.7784436071635845 
v -0.31638819336368135 0.6648702154929161 -0.6766432646900943 
v -0.3717480344601854 0.7071067811865481 -0.6015009550075445 
v -0.7696723314583146 0.26967233145831565 -0.5786893258332649 
v -0.7579354200477763 0.46842985086695366 -0.4539904997395481 
v -0.7784436071635845 0.37930426507867643 -0.5001538013044309 
v -0.6766432646900943 0.31638819336368135 -0.6648702154929161 
v -0.6015009550075445 0.3717480344601854 -0.7071067811865481 
v -0.5786893258332649 0.7696723314583146 -0.26967233145831565 
v -0.4539904997395481 0.7579354200477763 -0.46842985086695366 
v -0.5001538013044309 0.7784436071635845 -0.37930426507867643 
v -0.6648702154929161 0.6766432646900943 -0.31638819336368135 
v -0.7071067811865481 0.6015009550075445 -0.3717480344601854 
v -0.5642542117657711 0.5133754412304483 -0.6465777917977317 
v -0.6465777917977317 0.5642542117657711 -0.5133754412304483 
v -0.5133754412304483 0.6465777917977317 -0.5642542117657711 
v 0.26967233145831565 0.5786893258332649 -0.7696723314583146 
v 0.3717480344601854 0.7071067811865481 -0.6015009550075445 
v 0.31638819336368135 0.6648702154929161 -0.6766432646900943 
v 0.37930426507867643 0.5001538013044309 -0.7784436071635845 
v 0.46842985086695366 0.4539904997395481 -0.7579354200477763 
v 0.5786893258332649 0.7696723314583146 -0.26967233145831565 
v 0.7071067811865481 0.6015009550075445 -0.3717480344601854 
v 0.6648702154929161 0.6766432646900943 -0.31638819336368135 
v 0.5001538013044309 0.7784436071635845 -0.37930426507867643 
v 0.4539904997395481 0.7579354200477763 -0.46842985086695366 
v 0.7696723314583146 0.26967233145831565 -0.5786893258332649 
v 0.6015009550075445 0.3717480344601854 -0.7071067811865481 
v 0.6766432646900943 0.31638819336368135 -0.6648702154929161 
v 0.7784436071635845 0.37930426507867643 -0.5001538013044309 
v 0.7579354200477763 0.46842985086695366 -0.4539904997395481 
v 0.5133754412304483 0.6465777917977317 -0.5642542117657711 
v 0.6465777917977317 0.5642542117657711 -0.5133754412304483 
v 0.5642542117657711 0.5133754412304483 -0.6465777917977317 
v -0.26967233145831565 -0.5786893258332649 -0.7696723314583146 
v -0.3717480344601854 -0.7071067811865481 -0.6015009550075445 
v -0.31638819336368135 -0.6648702154929161 -0.6766432646900943 
v -0.37930426507867643 -0.5001538013044309 -0.7784436071635845 
v -0.46842985086695366 -0.4539904997395481 -0.7579354200477763 
v -0.5786893258332649 -0.7696723314583146 -0.26967233145831565 
v -0.7071067811865481 -0.6015009550075445 -0.3717480344601854 
v -0.6648702154929161 -0.6766432646900943 -0.31638819336368135 
v -0.5001538013044309 -0.7784436071635845 -0.37930426507867643 
v -0.4539904997395481 -0.7579354200477763 -0.46842985086695366 
v -0.7696723314583146 -0.26967233145831565 -0.5786893258332649 
v -0.6015009550075445 -0.3717480344601854 -0.7071067811865481 
v -0.6766432646900943 -0.31638819336368135 -0.6648702154929161 
v -0.7784436071635845 -0.37930426507867643 -0.5001538013044309 
v -0.7579354200477763 -0.46842985086695366 -0.4539904997395481 
v -0.5133754412304483 -0.6465777917977317 -0.5642542117657711 
v -0.6465777917977317 -0.5642542117657711 -0.5133754412304483 
v -0.5642542117657711 -0.5133754412304483 -0.6465777917977317 
v 0.26967233145831565 -0.5786893258332649 -0.7696723314583146 
v 0.46842985086695366 -0.4539904997395481 -0.7579354200477763 
v 0.37930426507867643 -0.5001538013044309 -0.7784436071635845 
v 0.31638819336368135 -0.6648702154929161 -0.6766432646900943 
v 0.3717480344601854 -0.7071067811865481 -0.6015009550075445 
v 0.7696723314583146 -0.26967233145831565 -0.5786893258332649 
v 0.7579354200477763 -0.46842985086695366 -0.4539904997395481 
v 0.7784436071635845 -0.37930426507867643 -0.5001538013044309 
v 0.6766432646900943 -0.31638819336368135 -0.6648702154929161 
v 0.6015009550075445 -0.3717480344601854 -0.7071067811865481 
v 0.5786893258332649 -0.7696723314583146 -0.26967233145831565 
v 0.4539904997395481 -0.7579354200477763 -0.46842985086695366 
v 0.5001538013044309 -0.7784436071635845 -0.37930426507867643 
v 0.6648702154929161 -0.6766432646900943 -0.31638819336368135 
v 0.7071067811865481 -0.6015009550075445 -0.3717480344601854 
v 0.5642542117657711 -0.5133754412304483 -0.6465777917977317 
v 0.6465777917977317 -0.5642542117657711 -0.5133754412304483 
v 0.5133754412304483 -0.6465777917977317 -0.5642542117657711 
v -0.26967233145831565 -0.5786893258332649 0.7696723314583146 
v -0.46842985086695366 -0.4539904997395481 0.7579354200477763 
v -0.37930426507867643 -0.5001538013044309 0.7784436071635845 
v -0.31638819336368135 -0.6648702154929161 0.6766432646900943 
v -0.3717480344601854 -0.7071067811865481 0.6015009550075445 
v -0.7696723314583146 -0.26967233145831565 0.5786893258332649 
v -0.7579354200477763 -0.46842985086695366 0.4539904997395481 
v -0.7784436071635845 -0.37930426507867643 0.5001538013044309 
v -0.6766432646900943 -0.31638819336368135 0.6648702154929161 
v -0.6015009550075445 -0.3717480344601854 0.7071067811865481 
v -0.5786893258332649 -0.7696723314583146 0.26967233145831565 
v -0.4539904997395481 -0.7579354200477763 0.46842985086695366 
v -0.5001538013044309 -0.7784436071635845 0.37930426507867643 
v -0.6648702154929161 -0.6766432646900943 0.31638819336368135 
v -0.7071067811865481 -0.6015009550075445 0.3717480344601854 
v -0.5642542117657711 -0.5133754412304483 0.6465777917977317 
v -0.6465777917977317 -0.5642542117657711 0.5133754412304483 
v -0.5133754412304483 -0.6465777917977317 0.5642542117657711 
v 0.26967233145831565 -0.5786893258332649 0.7696723314583146 
v 0.3717480344601854 -0.7071067811865481 0.6015009550075445 
v 0.31638819336368135 -0.6648702154929161 0.6766432646900943 
v 0.37930426507867643 -0.5001538013044309 0.7784436071635845 
v 0.46842985086695366 -0.4539904997395481 0.7579354200477763 
v 0.5786893258332649 -0.7696723314583146 0.26967233145831565 
v 0.7071067811865481 -0.6015009550075445 0.3717480344601854 
v 0.6648702154929161 -0.6766432646900943 0.31638819336368135 
v 0.5001538013044309 -0.7784436071635845 0.37930426507867643 
v 0.4539904997395481 -0.7579354200477763 0.46842985086695366 
v 0.7696723314583146 -0.26967233145831565 0.5786893258332649 
v 0.6015009550075445 -0.3717480344601854 0.7071067811865481 
v 0.6766432646900943 -0.31638819336368135 0.6648702154929161 
v 0.7784436071635845 -0.37930426507867643 0.5001538013044309 
v 0.7579354200477763 -0.46842985086695366 0.4539904997395481 
v 0.5133754412304483 -0.6465777917977317 0.5642542117657711 
v 0.6465777917977317 -0.5642542117657711 0.5133754412304483 
v 0.5642542117657711 -0.5133754412304483 0.6465777917977317 
f 1 163 165 
f 43 164 163 
f 45 165 164 
f 163 164 165 
f 13 166 168 
f 44 167 166 
f 43 168 167 
f 166 167 168 
f 15 169 171 
f 45 170 169 
f 44 171 170 
f 169 170 171 
f 43 167 164 
f 44 170 167 
f 45 164 170 
f 167 170 164 
f 3 172 174 
f 46 173 172 
f 48 174 173 
f 172 173 174 
f 14 175 177 
f 47 176 175 
f 46 177 176 
f 175 176 177 
f 13 178 180 
f 48 179 178 
f 47 180 179 
f 178 179 180 
f 46 176 173 
f 47 179 176 
f 48 173 179 
f 176 179 173 
f 2 181 183 
f 49 182 181 
f 51 183 182 
f 181 182 183 
f 15 184 186 
f 50 185 184 
f 49 186 185 
f 184 185 186 
f 14 187 189 
f 51 188 187 
f 50 189 188 
f 187 188 189 
f 49 185 182 
f 50 188 185 
f 51 182 188 
f 185 188 182 
f 13 180 166 
f 47 190 180 
f 44 166 190 
f 180 190 166 
f 14 189 175 
f 50 191 189 
f 47 175 191 
f 189 191 175 
f 15 171 184 
f 44 192 171 
f 50 184 192 
f 171 192 184 
f 47 191 190 
f 50 192 191 
f 44 190 192 
f 191 192 190 
f 4 193 195 
f 52 194 193 
f 54 195 194 
f 193 194 195 
f 16 196 198 
f 53 197 196 
f 52 198 197 
f 196 197 198 
f 17 199 201 
f 54 200 199 
f 53 201 200 
f 199 200 201 
f 52 197 194 
f 53 200 197 
f 54 194 200 
f 197 200 194 
f 2 183 203 
f 51 202 183 
f 56 203 202 
f 183 202 203 
f 14 204 187 
f 55 205 204 
f 51 187 205 
f 204 205 187 
f 16 206 208 
f 56 207 206 
f 55 208 207 
f 206 207 208 
f 51 205 202 
f 55 207 205 
f 56 202 207 
f 205 207 202 
f 3 209 172 
f 57 210 209 
f 46 172 210 
f 209 210 172 
f 17 211 213 
f 58 212 211 
f 57 213 212 
f 211 212 213 
f 14 177 215 
f 46 214 177 
f 58 215 214 
f 177 214 215 
f 57 212 210 
f 58 214 212 
f 46 210 214 
f 212 214 210 
f 16 208 196 
f 55 216 208 
f 53 196 216 
f 208 216 196 
f 14 215 204 
f 58 217 215 
f 55 204 217 
f 215 217 204 
f 17 201 211 
f 53 218 201 
f 58 211 218 
f 201 218 211 
f 55 217 216 
f 58 218 217 
f 53 216 218 
f 217 218 216 
f 4 219 221 
f 59 220 219 
f 61 221 220 
f 219 220 221 
f 18 222 224 
f 60 223 222 
f 59 224 223 
f 222 223 224 
f 20 225 227 
f 61 226 225 
f 60 227 226 
f 225 226 227 
f 59 223 220 
f 60 226 223 
f 61 220 226 
f 223 226 220 
f 6 228 230 
f 62 229 228 
f 64 230 229 
f 228 229 230 
f 19 231 233 
f 63 232 231 
f 62 233 232 
f 231 232 233 
f 18 234 236 
f 64 235 234 
f 63 236 235 
f 234 235 236 
f 62 232 229 
f 63 235 232 
f 64 229 235 
f 232 235 229 
f 5 237 239 
f 65 238 237 
f 67 239 238 
f 237 238 239 
f 20 240 242 
f 66 241 240 
f 65 242 241 
f 240 241 242 
f 19 243 245 
f 67 244 243 
f 66 245 244 
f 243 244 245 
f 65 241 238 
f 66 244 241 
f 67 238 244 
f 241 244 238 
f 18 236 222 
f 63 246 236 
f 60 222 246 
f 236 246 222 
f 19 245 231 
f 66 247 245 
f 63 231 247 
f 245 247 231 
f 20 227 240 
f 60 248 227 
f 66 240 248 
f 227 248 240 
f 63 247 246 
f 66 248 247 
f 60 246 248 
f 247 248 246 
f 4 221 250 
f 61 249 221 
f 69 250 249 
f 221 249 250 
f 20 251 225 
f 68 252 251 
f 61 225 252 
f 251 252 225 
f 22 253 255 
f 69 254 253 
f 68 255 254 
f 253 254 255 
f 61 252 249 
f 68 254 252 
f 69 249 254 
f 252 254 249 
f 5 256 237 
f 70 257 256 
f 65 237 257 
f 256 257 237 
f 21 258 260 
f 71 259 258 
f 70 260 259 
f 258 259 260 
f 20 242 262 
f 65 261 242 
f 71 262 261 
f 242 261 262 
f 70 259 257 
f 71 261 259 
f 65 257 261 
f 259 261 257 
f 7 263 265 
f 72 264 263 
f 74 265 264 
f 263 264 265 
f 22 266 268 
f 73 267 266 
f 72 268 267 
f 266 267 268 
f 21 269 271 
f 74 270 269 
f 73 271 270 
f 269 270 271 
f 72 267 264 
f 73 270 267 
f 74 264 270 
f 267 270 264 
f 20 262 251 
f 71 272 262 
f 68 251 272 
f 262 272 251 
f 21 271 258 
f 73 273 271 
f 71 258 273 
f 271 273 258 
f 22 255 266 
f 68 274 255 
f 73 266 274 
f 255 274 266 
f 71 273 272 
f 73 274 273 
f 68 272 274 
f 273 274 272 
f 1 275 277 
f 75 276 275 
f 77 277 276 
f 275 276 277 
f 23 278 280 
f 76 279 278 
f 75 280 279 
f 278 279 280 
f 25 281 283 
f 77 282 281 
f 76 283 282 
f 281 282 283 
f 75 279 276 
f 76 282 279 
f 77 276 282 
f 279 282 276 
f 9 284 286 
f 78 285 284 
f 80 286 285 
f 284 285 286 
f 24 287 289 
f 79 288 287 
f 78 289 288 
f 287 288 289 
f 23 290 292 
f 80 291 290 
f 79 292 291 
f 290 291 292 
f 78 288 285 
f 79 291 288 
f 80 285 291 
f 288 291 285 
f 8 293 295 
f 81 294 293 
f 83 295 294 
f 293 294 295 
f 25 296 298 
f 82 297 296 
f 81 298 297 
f 296 297 298 
f 24 299 301 
f 83 300 299 
f 82 301 300 
f 299 300 301 
f 81 297 294 
f 82 300 297 
f 83 294 300 
f 297 300 294 
f 23 292 278 
f 79 302 292 
f 76 278 302 
f 292 302 278 
f 24 301 287 
f 82 303 301 
f 79 287 303 
f 301 303 287 
f 25 283 296 
f 76 304 283 
f 82 296 304 
f 283 304 296 
f 79 303 302 
f 82 304 303 
f 76 302 304 
f 303 304 302 
f 1 277 306 
f 77 305 277 
f 85 306 305 
f 277 305 306 
f 25 307 281 
f 84 308 307 
f 77 281 308 
f 307 308 281 
f 27 309 311 
f 85 310 309 
f 84 311 310 
f 309 310 311 
f 77 308 305 
f 84 310 308 
f 85 305 310 
f 308 310 305 
f 8 312 293 
f 86 313 312 
f 81 293 313 
f 312 313 293 
f 26 314 316 
f 87 315 314 
f 86 316 315 
f 314 315 316 
f 25 298 318 
f 81 317 298 
f 87 318 317 
f 298 317 318 
f 86 315 313 
f 87 317 315 
f 81 313 317 
f 315 317 313 
f 10 319 321 
f 88 320 319 
f 90 321 320 
f 319 320 321 
f 27 322 324 
f 89 323 322 
f 88 324 323 
f 322 323 324 
f 26 325 327 
f 90 326 325 
f 89 327 326 
f 325 326 327 
f 88 323 320 
f 89 326 323 
f 90 320 326 
f 323 326 320 
f 25 318 307 
f 87 328 318 
f 84 307 328 
f 318 328 307 
f 26 327 314 
f 89 329 327 
f 87 314 329 
f 327 329 314 
f 27 311 322 
f 84 330 311 
f 89 322 330 
f 311 330 322 
f 87 329 328 
f 89 330 329 
f 84 328 330 
f 329 330 328 
f 5 331 333 
f 91 332 331 
f 93 333 332 
f 331 332 333 
f 28 334 336 
f 92 335 334 
f 91 336 335 
f 334 335 336 
f 30 337 339 
f 93 338 337 
f 92 339 338 
f 337 338 339 
f 91 335 332 
f 92 338 335 
f 93 332 338 
f 335 338 332 
f 12 340 342 
f 94 341 340 
f 96 342 341 
f 340 341 342 
f 29 343 345 
f 95 344 343 
f 94 345 344 
f 343 344 345 
f 28 346 348 
f 96 347 346 
f 95 348 347 
f 346 347 348 
f 94 344 341 
f 95 347 344 
f 96 341 347 
f 344 347 341 
f 11 349 351 
f 97 350 349 
f 99 351 350 
f 349 350 351 
f 30 352 354 
f 98 353 352 
f 97 354 353 
f 352 353 354 
f 29 355 357 
f 99 356 355 
f 98 357 356 
f 355 356 357 
f 97 353 350 
f 98 356 353 
f 99 350 356 
f 353 356 350 
f 28 348 334 
f 95 358 348 
f 92 334 358 
f 348 358 334 
f 29 357 343 
f 98 359 357 
f 95 343 359 
f 357 359 343 
f 30 339 352 
f 92 360 339 
f 98 352 360 
f 339 360 352 
f 95 359 358 
f 98 360 359 
f 92 358 360 
f 359 360 358 
f 8 361 363 
f 100 362 361 
f 102 363 362 
f 361 362 363 
f 31 364 366 
f 101 365 364 
f 100 366 365 
f 364 365 366 
f 32 367 369 
f 102 368 367 
f 101 369 368 
f 367 368 369 
f 100 365 362 
f 101 368 365 
f 102 362 368 
f 365 368 362 
f 11 351 371 
f 99 370 351 
f 104 371 370 
f 351 370 371 
f 29 372 355 
f 103 373 372 
f 99 355 373 
f 372 373 355 
f 31 374 376 
f 104 375 374 
f 103 376 375 
f 374 375 376 
f 99 373 370 
f 103 375 373 
f 104 370 375 
f 373 375 370 
f 12 377 340 
f 105 378 377 
f 94 340 378 
f 377 378 340 
f 32 379 381 
f 106 380 379 
f 105 381 380 
f 379 380 381 
f 29 345 383 
f 94 382 345 
f 106 383 382 
f 345 382 383 
f 105 380 378 
f 106 382 380 
f 94 378 382 
f 380 382 378 
f 31 376 364 
f 103 384 376 
f 101 364 384 
f 376 384 364 
f 29 383 372 
f 106 385 383 
f 103 372 385 
f 383 385 372 
f 32 369 379 
f 101 386 369 
f 106 379 386 
f 369 386 379 
f 103 385 384 
f 106 386 385 
f 101 384 386 
f 385 386 384 
f 3 387 389 
f 107 388 387 
f 109 389 388 
f 387 388 389 
f 33 390 392 
f 108 391 390 
f 107 392 391 
f 390 391 392 
f 35 393 395 
f 109 394 393 
f 108 395 394 
f 393 394 395 
f 107 391 388 
f 108 394 391 
f 109 388 394 
f 391 394 388 
f 10 396 398 
f 110 397 396 
f 112 398 397 
f 396 397 398 
f 34 399 401 
f 111 400 399 
f 110 401 400 
f 399 400 401 
f 33 402 404 
f 112 403 402 
f 111 404 403 
f 402 403 404 
f 110 400 397 
f 111 403 400 
f 112 397 403 
f 400 403 397 
f 6 405 407 
f 113 406 405 
f 115 407 406 
f 405 406 407 
f 35 408 410 
f 114 409 408 
f 113 410 409 
f 408 409 410 
f 34 411 413 
f 115 412 411 
f 114 413 412 
f 411 412 413 
f 113 409 406 
f 114 412 409 
f 115 406 412 
f 409 412 406 
f 33 404 390 
f 111 414 404 
f 108 390 414 
f 404 414 390 
f 34 413 399 
f 114 415 413 
f 111 399 415 
f 413 415 399 
f 35 395 408 
f 108 416 395 
f 114 408 416 
f 395 416 408 
f 111 415 414 
f 114 416 415 
f 108 414 416 
f 415 416 414 
f 12 417 419 
f 116 418 417 
f 118 419 418 
f 417 418 419 
f 36 420 422 
f 117 421 420 
f 116 422 421 
f 420 421 422 
f 37 423 425 
f 118 424 423 
f 117 425 424 
f 423 424 425 
f 116 421 418 
f 117 424 421 
f 118 418 424 
f 421 424 418 
f 6 407 427 
f 115 426 407 
f 120 427 426 
f 407 426 427 
f 34 428 411 
f 119 429 428 
f 115 411 429 
f 428 429 411 
f 36 430 432 
f 120 431 430 
f 119 432 431 
f 430 431 432 
f 115 429 426 
f 119 431 429 
f 120 426 431 
f 429 431 426 
f 10 433 396 
f 121 434 433 
f 110 396 434 
f 433 434 396 
f 37 435 437 
f 122 436 435 
f 121 437 436 
f 435 436 437 
f 34 401 439 
f 110 438 401 
f 122 439 438 
f 401 438 439 
f 121 436 434 
f 122 438 436 
f 110 434 438 
f 436 438 434 
f 36 432 420 
f 119 440 432 
f 117 420 440 
f 432 440 420 
f 34 439 428 
f 122 441 439 
f 119 428 441 
f 439 441 428 
f 37 425 435 
f 117 442 425 
f 122 435 442 
f 425 442 435 
f 119 441 440 
f 122 442 441 
f 117 440 442 
f 441 442 440 
f 2 443 445 
f 123 444 443 
f 125 445 444 
f 443 444 445 
f 38 446 448 
f 124 447 446 
f 123 448 447 
f 446 447 448 
f 40 449 451 
f 125 450 449 
f 124 451 450 
f 449 450 451 
f 123 447 444 
f 124 450 447 
f 125 444 450 
f 447 450 444 
f 7 452 454 
f 126 453 452 
f 128 454 453 
f 452 453 454 
f 39 455 457 
f 127 456 455 
f 126 457 456 
f 455 456 457 
f 38 458 460 
f 128 459 458 
f 127 460 459 
f 458 459 460 
f 126 456 453 
f 127 459 456 
f 128 453 459 
f 456 459 453 
f 9 461 463 
f 129 462 461 
f 131 463 462 
f 461 462 463 
f 40 464 466 
f 130 465 464 
f 129 466 465 
f 464 465 466 
f 39 467 469 
f 131 468 467 
f 130 469 468 
f 467 468 469 
f 129 465 462 
f 130 468 465 
f 131 462 468 
f 465 468 462 
f 38 460 446 
f 127 470 460 
f 124 446 470 
f 460 470 446 
f 39 469 455 
f 130 471 469 
f 127 455 471 
f 469 471 455 
f 40 451 464 
f 124 472 451 
f 130 464 472 
f 451 472 464 
f 127 471 470 
f 130 472 471 
f 124 470 472 
f 471 472 470 
f 11 473 475 
f 132 474 473 
f 134 475 474 
f 473 474 475 
f 41 476 478 
f 133 477 476 
f 132 478 477 
f 476 477 478 
f 42 479 481 
f 134 480 479 
f 133 481 480 
f 479 480 481 
f 132 477 474 
f 133 480 477 
f 134 474 480 
f 477 480 474 
f 9 463 483 
f 131 482 463 
f 136 483 482 
f 463 482 483 
f 39 484 467 
f 135 485 484 
f 131 467 485 
f 484 485 467 
f 41 486 488 
f 136 487 486 
f 135 488 487 
f 486 487 488 
f 131 485 482 
f 135 487 485 
f 136 482 487 
f 485 487 482 
f 7 489 452 
f 137 490 489 
f 126 452 490 
f 489 490 452 
f 42 491 493 
f 138 492 491 
f 137 493 492 
f 491 492 493 
f 39 457 495 
f 126 494 457 
f 138 495 494 
f 457 494 495 
f 137 492 490 
f 138 494 492 
f 126 490 494 
f 492 494 490 
f 41 488 476 
f 135 496 488 
f 133 476 496 
f 488 496 476 
f 39 495 484 
f 138 497 495 
f 135 484 497 
f 495 497 484 
f 42 481 491 
f 133 498 481 
f 138 491 498 
f 481 498 491 
f 135 497 496 
f 138 498 497 
f 133 496 498 
f 497 498 496 
f 4 195 219 
f 54 499 195 
f 59 219 499 
f 195 499 219 
f 17 500 199 
f 139 501 500 
f 54 199 501 
f 500 501 199 
f 18 224 503 
f 59 502 224 
f 139 503 502 
f 224 502 503 
f 54 501 499 
f 139 502 501 
f 59 499 502 
f 501 502 499 
f 3 389 209 
f 109 504 389 
f 57 209 504 
f 389 504 209 
f 35 505 393 
f 140 506 505 
f 109 393 506 
f 505 506 393 
f 17 213 508 
f 57 507 213 
f 140 508 507 
f 213 507 508 
f 109 506 504 
f 140 507 506 
f 57 504 507 
f 506 507 504 
f 6 230 405 
f 64 509 230 
f 113 405 509 
f 230 509 405 
f 18 510 234 
f 141 511 510 
f 64 234 511 
f 510 511 234 
f 35 410 513 
f 113 512 410 
f 141 513 512 
f 410 512 513 
f 64 511 509 
f 141 512 511 
f 113 509 512 
f 511 512 509 
f 17 508 500 
f 140 514 508 
f 139 500 514 
f 508 514 500 
f 35 513 505 
f 141 515 513 
f 140 505 515 
f 513 515 505 
f 18 503 510 
f 139 516 503 
f 141 510 516 
f 503 516 510 
f 140 515 514 
f 141 516 515 
f 139 514 516 
f 515 516 514 
f 4 250 193 
f 69 517 250 
f 52 193 517 
f 250 517 193 
f 22 518 253 
f 142 519 518 
f 69 253 519 
f 518 519 253 
f 16 198 521 
f 52 520 198 
f 142 521 520 
f 198 520 521 
f 69 519 517 
f 142 520 519 
f 52 517 520 
f 519 520 517 
f 7 454 263 
f 128 522 454 
f 72 263 522 
f 454 522 263 
f 38 523 458 
f 143 524 523 
f 128 458 524 
f 523 524 458 
f 22 268 526 
f 72 525 268 
f 143 526 525 
f 268 525 526 
f 128 524 522 
f 143 525 524 
f 72 522 525 
f 524 525 522 
f 2 203 443 
f 56 527 203 
f 123 443 527 
f 203 527 443 
f 16 528 206 
f 144 529 528 
f 56 206 529 
f 528 529 206 
f 38 448 531 
f 123 530 448 
f 144 531 530 
f 448 530 531 
f 56 529 527 
f 144 530 529 
f 123 527 530 
f 529 530 527 
f 22 526 518 
f 143 532 526 
f 142 518 532 
f 526 532 518 
f 38 531 523 
f 144 533 531 
f 143 523 533 
f 531 533 523 
f 16 521 528 
f 142 534 521 
f 144 528 534 
f 521 534 528 
f 143 533 532 
f 144 534 533 
f 142 532 534 
f 533 534 532 
f 1 306 163 
f 85 535 306 
f 43 163 535 
f 306 535 163 
f 27 536 309 
f 145 537 536 
f 85 309 537 
f 536 537 309 
f 13 168 539 
f 43 538 168 
f 145 539 538 
f 168 538 539 
f 85 537 535 
f 145 538 537 
f 43 535 538 
f 537 538 535 
f 10 398 319 
f 112 540 398 
f 88 319 540 
f 398 540 319 
f 33 541 402 
f 146 542 541 
f 112 402 542 
f 541 542 402 
f 27 324 544 
f 88 543 324 
f 146 544 543 
f 324 543 544 
f 112 542 540 
f 146 543 542 
f 88 540 543 
f 542 543 540 
f 3 174 387 
f 48 545 174 
f 107 387 545 
f 174 545 387 
f 13 546 178 
f 147 547 546 
f 48 178 547 
f 546 547 178 
f 33 392 549 
f 107 548 392 
f 147 549 548 
f 392 548 549 
f 48 547 545 
f 147 548 547 
f 107 545 548 
f 547 548 545 
f 27 544 536 
f 146 550 544 
f 145 536 550 
f 544 550 536 
f 33 549 541 
f 147 551 549 
f 146 541 551 
f 549 551 541 
f 13 539 546 
f 145 552 539 
f 147 546 552 
f 539 552 546 
f 146 551 550 
f 147 552 551 
f 145 550 552 
f 551 552 550 
f 1 165 275 
f 45 553 165 
f 75 275 553 
f 165 553 275 
f 15 554 169 
f 148 555 554 
f 45 169 555 
f 554 555 169 
f 23 280 557 
f 75 556 280 
f 148 557 556 
f 280 556 557 
f 45 555 553 
f 148 556 555 
f 75 553 556 
f 555 556 553 
f 2 445 181 
f 125 558 445 
f 49 181 558 
f 445 558 181 
f 40 559 449 
f 149 560 559 
f 125 449 560 
f 559 560 449 
f 15 186 562 
f 49 561 186 
f 149 562 561 
f 186 561 562 
f 125 560 558 
f 149 561 560 
f 49 558 561 
f 560 561 558 
f 9 286 461 
f 80 563 286 
f 129 461 563 
f 286 563 461 
f 23 564 290 
f 150 565 564 
f 80 290 565 
f 564 565 290 
f 40 466 567 
f 129 566 466 
f 150 567 566 
f 466 566 567 
f 80 565 563 
f 150 566 565 
f 129 563 566 
f 565 566 563 
f 15 562 554 
f 149 568 562 
f 148 554 568 
f 562 568 554 
f 40 567 559 
f 150 569 567 
f 149 559 569 
f 567 569 559 
f 23 557 564 
f 148 570 557 
f 150 564 570 
f 557 570 564 
f 149 569 568 
f 150 570 569 
f 148 568 570 
f 569 570 568 
f 8 363 312 
f 102 571 363 
f 86 312 571 
f 363 571 312 
f 32 572 367 
f 151 573 572 
f 102 367 573 
f 572 573 367 
f 26 316 575 
f 86 574 316 
f 151 575 574 
f 316 574 575 
f 102 573 571 
f 151 574 573 
f 86 571 574 
f 573 574 571 
f 12 419 377 
f 118 576 419 
f 105 377 576 
f 419 576 377 
f 37 577 423 
f 152 578 577 
f 118 423 578 
f 577 578 423 
f 32 381 580 
f 105 579 381 
f 152 580 579 
f 381 579 580 
f 118 578 576 
f 152 579 578 
f 105 576 579 
f 578 579 576 
f 10 321 433 
f 90 581 321 
f 121 433 581 
f 321 581 433 
f 26 582 325 
f 153 583 582 
f 90 325 583 
f 582 583 325 
f 37 437 585 
f 121 584 437 
f 153 585 584 
f 437 584 585 
f 90 583 581 
f 153 584 583 
f 121 581 584 
f 583 584 581 
f 32 580 572 
f 152 586 580 
f 151 572 586 
f 580 586 572 
f 37 585 577 
f 153 587 585 
f 152 577 587 
f 585 587 577 
f 26 575 582 
f 151 588 575 
f 153 582 588 
f 575 588 582 
f 152 587 586 
f 153 588 587 
f 151 586 588 
f 587 588 586 
f 8 295 361 
f 83 589 295 
f 100 361 589 
f 295 589 361 
f 24 590 299 
f 154 591 590 
f 83 299 591 
f 590 591 299 
f 31 366 593 
f 100 592 366 
f 154 593 592 
f 366 592 593 
f 83 591 589 
f 154 592 591 
f 100 589 592 
f 591 592 589 
f 9 483 284 
f 136 594 483 
f 78 284 594 
f 483 594 284 
f 41 595 486 
f 155 596 595 
f 136 486 596 
f 595 596 486 
f 24 289 598 
f 78 597 289 
f 155 598 597 
f 289 597 598 
f 136 596 594 
f 155 597 596 
f 78 594 597 
f 596 597 594 
f 11 371 473 
f 104 599 371 
f 132 473 599 
f 371 599 473 
f 31 600 374 
f 156 601 600 
f 104 374 601 
f 600 601 374 
f 41 478 603 
f 132 602 478 
f 156 603 602 
f 478 602 603 
f 104 601 599 
f 156 602 601 
f 132 599 602 
f 601 602 599 
f 24 598 590 
f 155 604 598 
f 154 590 604 
f 598 604 590 
f 41 603 595 
f 156 605 603 
f 155 595 605 
f 603 605 595 
f 31 593 600 
f 154 606 593 
f 156 600 606 
f 593 606 600 
f 155 605 604 
f 156 606 605 
f 154 604 606 
f 605 606 604 
f 5 239 331 
f 67 607 239 
f 91 331 607 
f 239 607 331 
f 19 608 243 
f 157 609 608 
f 67 243 609 
f 608 609 243 
f 28 336 611 
f 91 610 336 
f 157 611 610 
f 336 610 611 
f 67 609 607 
f 157 610 609 
f 91 607 610 
f 609 610 607 
f 6 427 228 
f 120 612 427 
f 62 228 612 
f 427 612 228 
f 36 613 430 
f 158 614 613 
f 120 430 614 
f 613 614 430 
f 19 233 616 
f 62 615 233 
f 158 616 615 
f 233 615 616 
f 120 614 612 
f 158 615 614 
f 62 612 615 
f 614 615 612 
f 12 342 417 
f 96 617 342 
f 116 417 617 
f 342 617 417 
f 28 618 346 
f 159 619 618 
f 96 346 619 
f 618 619 346 
f 36 422 621 
f 116 620 422 
f 159 621 620 
f 422 620 621 
f 96 619 617 
f 159 620 619 
f 116 617 620 
f 619 620 617 
f 19 616 608 
f 158 622 616 
f 157 608 622 
f 616 622 608 
f 36 621 613 
f 159 623 621 
f 158 613 623 
f 621 623 613 
f 28 611 618 
f 157 624 611 
f 159 618 624 
f 611 624 618 
f 158 623 622 
f 159 624 623 
f 157 622 624 
f 623 624 622 
f 5 333 256 
f 93 625 333 
f 70 256 625 
f 333 625 256 
f 30 626 337 
f 160 627 626 
f 93 337 627 
f 626 627 337 
f 21 260 629 
f 70 628 260 
f 160 629 628 
f 260 628 629 
f 93 627 625 
f 160 628 627 
f 70 625 628 
f 627 628 625 
f 11 475 349 
f 134 630 475 
f 97 349 630 
f 475 630 349 
f 42 631 479 
f 161 632 631 
f 134 479 632 
f 631 632 479 
f 30 354 634 
f 97 633 354 
f 161 634 633 
f 354 633 634 
f 134 632 630 
f 161 633 632 
f 97 630 633 
f 632 633 630 
f 7 265 489 
f 74 635 265 
f 137 489 635 
f 265 635 489 
f 21 636 269 
f 162 637 636 
f 74 269 637 
f 636 637 269 
f 42 493 639 
f 137 638 493 
f 162 639 638 
f 493 638 639 
f 74 637 635 
f 162 638 637 
f 137 635 638 
f 637 638 635 
f 30 634 626 
f 161 640 634 
f 160 626 640 
f 634 640 626 
f 42 639 631 
f 162 641 639 
f 161 631 641 
f 639 641 631 
f 21 629 636 
f 160 642 629 
f 162 636 642 
f 629 642 636 
f 161 641 640 
f 162 642 641 
f 160 640 642 
f 641 642 640 
