v 0.0 0.30901699437495 -0.5 
v 0.30901699437495 0.5 0.0 
v -0.30901699437495 0.5 0.0 
v 0.0 0.30901699437495 0.5 
v 0.0 -0.30901699437495 0.5 
v -0.5 0.0 0.30901699437495 
v 0.5 0.0 0.30901699437495 
v 0.0 -0.30901699437495 -0.5 
v 0.5 0.0 -0.30901699437495 
v -0.5 0.0 -0.30901699437495 
v 0.30901699437495 -0.5 0.0 
v -0.30901699437495 -0.5 0.0 
v -0.3090169943749491 0.8090169943749477 -0.49999999999999856 
v 0.0 1.0 0.0 
v 0.3090169943749491 0.8090169943749477 -0.49999999999999856 
v 0.3090169943749491 0.8090169943749477 0.49999999999999856 
v -0.3090169943749491 0.8090169943749477 0.49999999999999856 
v -0.49999999999999856 0.3090169943749491 0.8090169943749477 
v -0.49999999999999856 -0.3090169943749491 0.8090169943749477 
v 0.0 0.0 1.0 
v 0.49999999999999856 -0.3090169943749491 0.8090169943749477 
v 0.49999999999999856 0.3090169943749491 0.8090169943749477 
v 0.49999999999999856 0.3090169943749491 -0.8090169943749477 
v 0.49999999999999856 -0.3090169943749491 -0.8090169943749477 
v 0.0 0.0 -1.0 
v -0.49999999999999856 -0.3090169943749491 -0.8090169943749477 
v -0.49999999999999856 0.3090169943749491 -0.8090169943749477 
v -0.3090169943749491 -0.8090169943749477 0.49999999999999856 
v 0.0 -1.0 0.0 
v 0.3090169943749491 -0.8090169943749477 0.49999999999999856 
v 0.3090169943749491 -0.8090169943749477 -0.49999999999999856 
v -0.3090169943749491 -0.8090169943749477 -0.49999999999999856 
v -0.8090169943749477 0.49999999999999856 -0.3090169943749491 
v -1.0 0.0 0.0 
v -0.8090169943749477 0.49999999999999856 0.3090169943749491 
v -0.8090169943749477 -0.49999999999999856 0.3090169943749491 
v -0.8090169943749477 -0.49999999999999856 -0.3090169943749491 
v 0.8090169943749477 0.49999999999999856 0.3090169943749491 
v 1.0 0.0 0.0 
v 0.8090169943749477 0.49999999999999856 -0.3090169943749491 
v 0.8090169943749477 -0.49999999999999856 -0.3090169943749491 
v 0.8090169943749477 -0.49999999999999856 0.3090169943749491 
v -0.2017741061675998 0.7300255741640036 -0.652954723657608 
v 0.0 0.8506508083520407 -0.5257311121191324 
v 0.2017741061675998 0.7300255741640036 -0.652954723657608 
v -0.20177410616760047 0.9794320854864138 0.0 
v -0.16245984811645403 0.9510565162951536 -0.262865556059566 
v -0.4035482123352001 0.8547288298252076 -0.3264773618288035 
v 0.4035482123352001 0.8547288298252076 -0.3264773618288035 
v 0.16245984811645403 0.9510565162951536 -0.262865556059566 
v 0.20177410616760047 0.9794320854864138 0.0 
v 0.2017741061675998 0.7300255741640036 0.652954723657608 
v 0.0 0.8506508083520407 0.5257311121191324 
v -0.2017741061675998 0.7300255741640036 0.652954723657608 
v 0.16245984811645403 0.9510565162951536 0.262865556059566 
v 0.4035482123352001 0.8547288298252076 0.3264773618288035 
v -0.4035482123352001 0.8547288298252076 0.3264773618288035 
v -0.16245984811645403 0.9510565162951536 0.262865556059566 
v -0.3264773618288035 0.4035482123352001 0.8547288298252076 
v -0.262865556059566 0.16245984811645403 0.9510565162951536 
v 0.0 0.20177410616760047 0.9794320854864138 
v -0.652954723657608 -0.2017741061675998 0.7300255741640036 
v -0.5257311121191324 0.0 0.8506508083520407 
v -0.652954723657608 0.2017741061675998 0.7300255741640036 
v 0.0 -0.20177410616760047 0.9794320854864138 
v -0.262865556059566 -0.16245984811645403 0.9510565162951536 
v -0.3264773618288035 -0.4035482123352001 0.8547288298252076 
v 0.262865556059566 0.16245984811645403 0.9510565162951536 
v 0.3264773618288035 0.4035482123352001 0.8547288298252076 
v 0.3264773618288035 -0.4035482123352001 0.8547288298252076 
v 0.262865556059566 -0.16245984811645403 0.9510565162951536 
v 0.652954723657608 0.2017741061675998 0.7300255741640036 
v 0.5257311121191324 0.0 0.8506508083520407 
v 0.652954723657608 -0.2017741061675998 0.7300255741640036 
v 0.3264773618288035 0.4035482123352001 -0.8547288298252076 
v 0.262865556059566 0.16245984811645403 -0.9510565162951536 
v 0.0 0.20177410616760047 -0.9794320854864138 
v 0.652954723657608 -0.2017741061675998 -0.7300255741640036 
v 0.5257311121191324 0.0 -0.8506508083520407 
v 0.652954723657608 0.2017741061675998 -0.7300255741640036 
v 0.0 -0.20177410616760047 -0.9794320854864138 
v 0.262865556059566 -0.16245984811645403 -0.9510565162951536 
v 0.3264773618288035 -0.4035482123352001 -0.8547288298252076 
v -0.262865556059566 0.16245984811645403 -0.9510565162951536 
v -0.3264773618288035 0.4035482123352001 -0.8547288298252076 
v -0.3264773618288035 -0.4035482123352001 -0.8547288298252076 
v -0.262865556059566 -0.16245984811645403 -0.9510565162951536 
v -0.652954723657608 0.2017741061675998 -0.7300255741640036 
v -0.5257311121191324 0.0 -0.8506508083520407 
v -0.652954723657608 -0.2017741061675998 -0.7300255741640036 
v -0.2017741061675998 -0.7300255741640036 0.652954723657608 
v 0.0 -0.8506508083520407 0.5257311121191324 
v 0.2017741061675998 -0.7300255741640036 0.652954723657608 
v -0.20177410616760047 -0.9794320854864138 0.0 
v -0.16245984811645403 -0.9510565162951536 0.262865556059566 
v -0.4035482123352001 -0.8547288298252076 0.3264773618288035 
v 0.4035482123352001 -0.8547288298252076 0.3264773618288035 
v 0.16245984811645403 -0.9510565162951536 0.262865556059566 
v 0.20177410616760047 -0.9794320854864138 0.0 
v 0.2017741061675998 -0.7300255741640036 -0.652954723657608 
v 0.0 -0.8506508083520407 -0.5257311121191324 
v -0.2017741061675998 -0.7300255741640036 -0.652954723657608 
v 0.16245984811645403 -0.9510565162951536 -0.262865556059566 
v 0.4035482123352001 -0.8547288298252076 -0.3264773618288035 
v -0.4035482123352001 -0.8547288298252076 -0.3264773618288035 
v -0.16245984811645403 -0.9510565162951536 -0.262865556059566 
v -0.7300255741640036 0.652954723657608 -0.2017741061675998 
v -0.8506508083520407 0.5257311121191324 0.0 
v -0.7300255741640036 0.652954723657608 0.2017741061675998 
v -0.9794320854864138 0.0 -0.20177410616760047 
v -0.9510565162951536 0.262865556059566 -0.16245984811645403 
v -0.8547288298252076 0.3264773618288035 -0.4035482123352001 
v -0.8547288298252076 0.3264773618288035 0.4035482123352001 
v -0.9510565162951536 0.262865556059566 0.16245984811645403 
v -0.9794320854864138 0.0 0.20177410616760047 
v -0.7300255741640036 -0.652954723657608 0.2017741061675998 
v -0.8506508083520407 -0.5257311121191324 0.0 
v -0.7300255741640036 -0.652954723657608 -0.2017741061675998 
v -0.9510565162951536 -0.262865556059566 0.16245984811645403 
v -0.8547288298252076 -0.3264773618288035 0.4035482123352001 
v -0.8547288298252076 -0.3264773618288035 -0.4035482123352001 
v -0.9510565162951536 -0.262865556059566 -0.16245984811645403 
v 0.7300255741640036 0.652954723657608 0.2017741061675998 
v 0.8506508083520407 0.5257311121191324 0.0 
v 0.7300255741640036 0.652954723657608 -0.2017741061675998 
v 0.9794320854864138 0.0 0.20177410616760047 
v 0.9510565162951536 0.262865556059566 0.16245984811645403 
v 0.8547288298252076 0.3264773618288035 0.4035482123352001 
v 0.8547288298252076 0.3264773618288035 -0.4035482123352001 
v 0.9510565162951536 0.262865556059566 -0.16245984811645403 
v 0.9794320854864138 0.0 -0.20177410616760047 
v 0.7300255741640036 -0.652954723657608 -0.2017741061675998 
v 0.8506508083520407 -0.5257311121191324 0.0 
v 0.7300255741640036 -0.652954723657608 0.2017741061675998 
v 0.9510565162951536 -0.262865556059566 -0.16245984811645403 
v 0.8547288298252076 -0.3264773618288035 -0.4035482123352001 
v 0.8547288298252076 -0.3264773618288035 0.4035482123352001 
v 0.9510565162951536 -0.262865556059566 0.16245984811645403 
v -0.42532540417602005 0.587785252292474 0.688190960235586 
v -0.587785252292474 0.688190960235586 0.42532540417602005 
v -0.688190960235586 0.42532540417602005 0.587785252292474 
v 0.42532540417602005 0.587785252292474 0.688190960235586 
v 0.688190960235586 0.42532540417602005 0.587785252292474 
v 0.587785252292474 0.688190960235586 0.42532540417602005 
v -0.42532540417602005 0.587785252292474 -0.688190960235586 
v -0.688190960235586 0.42532540417602005 -0.587785252292474 
v -0.587785252292474 0.688190960235586 -0.42532540417602005 
v 0.42532540417602005 0.587785252292474 -0.688190960235586 
v 0.587785252292474 0.688190960235586 -0.42532540417602005 
v 0.688190960235586 0.42532540417602005 -0.587785252292474 
v -0.42532540417602005 -0.587785252292474 -0.688190960235586 
v -0.587785252292474 -0.688190960235586 -0.42532540417602005 
v -0.688190960235586 -0.42532540417602005 -0.587785252292474 
v 0.42532540417602005 -0.587785252292474 -0.688190960235586 
v 0.688190960235586 -0.42532540417602005 -0.587785252292474 
v 0.587785252292474 -0.688190960235586 -0.42532540417602005 
v -0.42532540417602005 -0.587785252292474 0.688190960235586 
v -0.688190960235586 -0.42532540417602005 0.587785252292474 
v -0.587785252292474 -0.688190960235586 0.42532540417602005 
v 0.42532540417602005 -0.587785252292474 0.688190960235586 
v 0.587785252292474 -0.688190960235586 0.42532540417602005 
v 0.688190960235586 -0.42532540417602005 0.587785252292474 
f 1 43 45 
f 13 44 43 
f 15 45 44 
f 43 44 45 
f 3 46 48 
f 14 47 46 
f 13 48 47 
f 46 47 48 
f 2 49 51 
f 15 50 49 
f 14 51 50 
f 49 50 51 
f 13 47 44 
f 14 50 47 
f 15 44 50 
f 47 50 44 
f 4 52 54 
f 16 53 52 
f 17 54 53 
f 52 53 54 
f 2 51 56 
f 14 55 51 
f 16 56 55 
f 51 55 56 
f 3 57 46 
f 17 58 57 
f 14 46 58 
f 57 58 46 
f 16 55 53 
f 14 58 55 
f 17 53 58 
f 55 58 53 
f 4 59 61 
f 18 60 59 
f 20 61 60 
f 59 60 61 
f 6 62 64 
f 19 63 62 
f 18 64 63 
f 62 63 64 
f 5 65 67 
f 20 66 65 
f 19 67 66 
f 65 66 67 
f 18 63 60 
f 19 66 63 
f 20 60 66 
f 63 66 60 
f 4 61 69 
f 20 68 61 
f 22 69 68 
f 61 68 69 
f 5 70 65 
f 21 71 70 
f 20 65 71 
f 70 71 65 
f 7 72 74 
f 22 73 72 
f 21 74 73 
f 72 73 74 
f 20 71 68 
f 21 73 71 
f 22 68 73 
f 71 73 68 
f 1 75 77 
f 23 76 75 
f 25 77 76 
f 75 76 77 
f 9 78 80 
f 24 79 78 
f 23 80 79 
f 78 79 80 
f 8 81 83 
f 25 82 81 
f 24 83 82 
f 81 82 83 
f 23 79 76 
f 24 82 79 
f 25 76 82 
f 79 82 76 
f 1 77 85 
f 25 84 77 
f 27 85 84 
f 77 84 85 
f 8 86 81 
f 26 87 86 
f 25 81 87 
f 86 87 81 
f 10 88 90 
f 27 89 88 
f 26 90 89 
f 88 89 90 
f 25 87 84 
f 26 89 87 
f 27 84 89 
f 87 89 84 
f 5 91 93 
f 28 92 91 
f 30 93 92 
f 91 92 93 
f 12 94 96 
f 29 95 94 
f 28 96 95 
f 94 95 96 
f 11 97 99 
f 30 98 97 
f 29 99 98 
f 97 98 99 
f 28 95 92 
f 29 98 95 
f 30 92 98 
f 95 98 92 
f 8 100 102 
f 31 101 100 
f 32 102 101 
f 100 101 102 
f 11 99 104 
f 29 103 99 
f 31 104 103 
f 99 103 104 
f 12 105 94 
f 32 106 105 
f 29 94 106 
f 105 106 94 
f 31 103 101 
f 29 106 103 
f 32 101 106 
f 103 106 101 
f 3 107 109 
f 33 108 107 
f 35 109 108 
f 107 108 109 
f 10 110 112 
f 34 111 110 
f 33 112 111 
f 110 111 112 
f 6 113 115 
f 35 114 113 
f 34 115 114 
f 113 114 115 
f 33 111 108 
f 34 114 111 
f 35 108 114 
f 111 114 108 
f 12 116 118 
f 36 117 116 
f 37 118 117 
f 116 117 118 
f 6 115 120 
f 34 119 115 
f 36 120 119 
f 115 119 120 
f 10 121 110 
f 37 122 121 
f 34 110 122 
f 121 122 110 
f 36 119 117 
f 34 122 119 
f 37 117 122 
f 119 122 117 
f 2 123 125 
f 38 124 123 
f 40 125 124 
f 123 124 125 
f 7 126 128 
f 39 127 126 
f 38 128 127 
f 126 127 128 
f 9 129 131 
f 40 130 129 
f 39 131 130 
f 129 130 131 
f 38 127 124 
f 39 130 127 
f 40 124 130 
f 127 130 124 
f 11 132 134 
f 41 133 132 
f 42 134 133 
f 132 133 134 
f 9 131 136 
f 39 135 131 
f 41 136 135 
f 131 135 136 
f 7 137 126 
f 42 138 137 
f 39 126 138 
f 137 138 126 
f 41 135 133 
f 39 138 135 
f 42 133 138 
f 135 138 133 
f 4 54 59 
f 17 139 54 
f 18 59 139 
f 54 139 59 
f 3 109 57 
f 35 140 109 
f 17 57 140 
f 109 140 57 
f 6 64 113 
f 18 141 64 
f 35 113 141 
f 64 141 113 
f 17 140 139 
f 35 141 140 
f 18 139 141 
f 140 141 139 
f 4 69 52 
f 22 142 69 
f 16 52 142 
f 69 142 52 
f 7 128 72 
f 38 143 128 
f 22 72 143 
f 128 143 72 
f 2 56 123 
f 16 144 56 
f 38 123 144 
f 56 144 123 
f 22 143 142 
f 38 144 143 
f 16 142 144 
f 143 144 142 
f 1 85 43 
f 27 145 85 
f 13 43 145 
f 85 145 43 
f 10 112 88 
f 33 146 112 
f 27 88 146 
f 112 146 88 
f 3 48 107 
f 13 147 48 
f 33 107 147 
f 48 147 107 
f 27 146 145 
f 33 147 146 
f 13 145 147 
f 146 147 145 
f 1 45 75 
f 15 148 45 
f 23 75 148 
f 45 148 75 
f 2 125 49 
f 40 149 125 
f 15 49 149 
f 125 149 49 
f 9 80 129 
f 23 150 80 
f 40 129 150 
f 80 150 129 
f 15 149 148 
f 40 150 149 
f 23 148 150 
f 149 150 148 
f 8 102 86 
f 32 151 102 
f 26 86 151 
f 102 151 86 
f 12 118 105 
f 37 152 118 
f 32 105 152 
f 118 152 105 
f 10 90 121 
f 26 153 90 
f 37 121 153 
f 90 153 121 
f 32 152 151 
f 37 153 152 
f 26 151 153 
f 152 153 151 
f 8 83 100 
f 24 154 83 
f 31 100 154 
f 83 154 100 
f 9 136 78 
f 41 155 136 
f 24 78 155 
f 136 155 78 
f 11 104 132 
f 31 156 104 
f 41 132 156 
f 104 156 132 
f 24 155 154 
f 41 156 155 
f 31 154 156 
f 155 156 154 
f 5 67 91 
f 19 157 67 
f 28 91 157 
f 67 157 91 
f 6 120 62 
f 36 158 120 
f 19 62 158 
f 120 158 62 
f 12 96 116 
f 28 159 96 
f 36 116 159 
f 96 159 116 
f 19 158 157 
f 36 159 158 
f 28 157 159 
f 158 159 157 
f 5 93 70 
f 30 160 93 
f 21 70 160 
f 93 160 70 
f 11 134 97 
f 42 161 134 
f 30 97 161 
f 134 161 97 
f 7 74 137 
f 21 162 74 
f 42 137 162 
f 74 162 137 
f 30 161 160 
f 42 162 161 
f 21 160 162 
f 161 162 160 
